PathFileType	4	(X/Y/Z)	TVC_16_BWA4_walk_RCNL2025.trc
DataRate	CameraRate	NumFrames	NumMarkers	Units	OrigDataRate	OrigDataStartFrame	OrigNumFrames
100	100	6	27	mm	100	592	947
Frame#	Time	R_Shoulder			L_Shoulder			C7			J_Notch			R_Elbow			L_Elbow			R_Wrist			L_Wrist			R_Asis			L_Asis			R_Psis			L_Psis			Sacral			Thoracic			Sternum			R_Thigh_Lateral			R_Knee_Lateral			R_Shank_Lateral			R_Ankle_Lateral			R_Heel			R_Toe			L_Thigh_Lateral			L_Knee_Lateral			L_Shank_Lateral			L_Ankle_Lateral			L_Heel			L_Toe		
		X1	Y1	Z1	X2	Y2	Z2	X3	Y3	Z3	X4	Y4	Z4	X5	Y5	Z5	X6	Y6	Z6	X7	Y7	Z7	X8	Y8	Z8	X9	Y9	Z9	X10	Y10	Z10	X11	Y11	Z11	X12	Y12	Z12	X13	Y13	Z13	X14	Y14	Z14	X15	Y15	Z15	X16	Y16	Z16	X17	Y17	Z17	X18	Y18	Z18	X19	Y19	Z19	X20	Y20	Z20	X21	Y21	Z21	X22	Y22	Z22	X23	Y23	Z23	X24	Y24	Z24	X25	Y25	Z25	X26	Y26	Z26	X27	Y27	Z27
592	5.91000000	12.092123	1285.292114	520.128967	-27.768213	1269.478394	195.315292	-68.715477	1342.758545	367.260071	50.121956	1193.788452	365.056610	-79.998512	1002.496094	641.380188	-46.676579	946.839783	139.841644	-69.014404	776.188416	693.507538	22.129474	751.655334	217.464508	-33.696571	866.355286	521.627319	-84.682091	871.036133	263.001160	-214.863632	922.746460	475.663727	-233.081848	918.719421	369.936035	-223.972740	920.732941	422.799881	-178.561157	1099.126343	395.297241	49.506096	1000.274170	364.990814	-52.964897	590.846252	615.375366	9.695126	430.357910	514.122375	-5.423265	274.130768	568.870300	-52.140957	56.634014	498.996887	-108.233742	49.342506	456.855438	64.146500	40.481209	443.199921	-122.062767	578.538208	190.338791	-111.508644	400.318726	284.182861	-221.569504	284.134399	230.151489	-338.244598	93.433701	315.843079	-378.251221	107.911652	360.842407	-217.936356	37.331882	358.334473
593	5.92000000	16.093515	1286.221558	520.825745	-24.187611	1270.382568	196.062378	-65.033340	1343.492554	368.063019	54.046947	1194.761108	365.725677	-75.310844	1003.331909	642.376831	-41.989346	947.789795	140.261810	-63.790358	777.113617	694.643341	28.524982	752.837585	216.709435	-29.080210	867.070435	522.367615	-80.677773	871.868225	263.892181	-210.143753	923.164734	477.092438	-228.886658	919.170715	371.435089	-219.515205	921.167725	424.263763	-174.541016	1099.711304	396.514252	53.693424	1001.427856	365.686981	-49.584663	591.187744	616.084656	11.221323	430.110413	514.499634	-4.396596	273.793396	569.214966	-52.008835	56.488869	499.161743	-108.156914	49.358654	457.128967	64.155937	40.461411	443.218964	-117.356102	579.667786	190.100266	-105.872330	400.926910	282.948151	-217.329361	286.002747	229.258743	-335.923096	96.414932	314.904022	-375.595245	111.810730	359.883942	-217.318710	37.263714	358.142914
594	5.93000000	20.022110	1287.121094	521.539490	-20.760025	1271.343140	196.834869	-61.472591	1344.205566	368.917297	57.894325	1195.760742	366.390594	-70.542770	1004.080505	643.338562	-37.361076	948.814453	140.671066	-58.458509	777.959503	695.746613	35.032569	754.162476	215.885025	-24.503990	867.756714	523.048157	-76.656662	872.690063	264.758057	-205.497406	923.572449	478.482910	-224.721085	919.574707	372.889648	-215.109245	921.573578	425.686279	-170.585785	1100.249512	397.721069	57.829838	1002.610596	366.351624	-46.204208	591.498901	616.731445	12.732691	429.865051	514.849731	-3.400441	273.458191	569.531189	-51.886597	56.359779	499.295349	-108.087898	49.394299	457.365112	64.162659	40.446167	443.223053	-112.315475	580.809082	189.810699	-99.922264	401.541565	281.635071	-212.722519	287.865021	228.251526	-333.396393	99.489082	313.836609	-372.683136	115.865013	358.766754	-216.682755	37.184734	357.946350
595	5.94000000	23.883722	1287.968994	522.263367	-17.491800	1272.335693	197.629150	-58.031319	1344.881470	369.817841	61.661377	1196.764893	367.045441	-65.693512	1004.727966	644.272522	-32.791088	949.889893	141.067047	-53.007391	778.710815	696.818085	41.637753	755.612061	215.004448	-19.977598	868.401611	523.668091	-72.619858	873.477173	265.594971	-200.935867	923.951965	479.814880	-220.590805	919.913757	374.278503	-210.763336	921.932861	427.046692	-166.700577	1100.726929	398.904572	61.912228	1003.792725	366.982513	-42.797298	591.780396	617.315002	14.248141	429.616791	515.178833	-2.412859	273.120514	569.820007	-51.773338	56.242573	499.401489	-108.025879	49.445522	457.567139	64.167389	40.433960	443.215637	-106.929100	581.943298	189.486603	-93.671745	402.149292	280.270691	-207.744019	289.694061	227.136475	-330.668762	102.641190	312.633453	-369.516266	120.054871	357.479156	-216.037216	37.102291	357.742523
596	5.95000000	27.682684	1288.746948	522.990417	-14.385878	1273.335815	198.440384	-54.706562	1345.505737	370.757812	65.345726	1197.751465	367.684143	-60.765995	1005.264282	645.186340	-28.278461	950.990601	141.449646	-47.425800	779.355225	697.855957	48.324961	757.165283	214.081169	-15.510598	868.992981	524.229919	-68.572037	874.207092	266.398560	-196.468170	924.284668	481.069397	-216.501633	920.172363	375.581848	-206.484901	922.228516	428.325623	-162.889786	1101.131470	400.051788	65.937920	1004.945190	367.576416	-39.344307	592.030884	617.837036	15.787142	429.360474	515.492310	-1.412481	272.776062	570.083069	-51.667206	56.133312	499.484741	-107.969215	49.508141	457.738831	64.170883	40.423157	443.200348	-101.196991	583.053406	189.146881	-87.142097	402.737549	278.885376	-202.395447	291.463226	225.922394	-327.744019	105.856674	311.287689	-366.102722	124.358047	356.010406	-215.388794	37.027939	357.527496
597	5.96000000	31.421371	1289.440430	523.713684	-11.440959	1274.319946	199.262619	-51.494362	1346.066650	371.728638	68.945549	1198.700684	368.300995	-55.766468	1005.683960	646.086914	-23.822332	952.090637	141.820908	-41.704204	779.884094	698.855499	55.077745	758.799561	213.128593	-11.112206	869.520020	524.738953	-64.522568	874.860413	267.163818	-192.101669	924.553345	482.229584	-212.459305	920.337891	376.782104	-202.280487	922.445618	429.505844	-159.156830	1101.453979	401.150391	69.904625	1006.041382	368.129303	-35.833546	592.247620	618.301086	17.368565	429.091248	515.794189	-0.380117	272.421356	570.322144	-51.565632	56.028751	499.550171	-107.915588	49.578362	457.884094	64.173843	40.412186	443.180786	-95.130821	584.124634	188.812149	-80.362114	403.294983	277.511353	-196.684967	293.147614	224.620499	-324.624115	109.121140	309.793854	-362.456970	128.749161	354.351990	-214.739426	36.977322	357.294983
